<svg fill="#000000" xmlns="http://www.w3.org/2000/svg"  viewBox="0 0 30 30" width="30px" height="30px"><path d="M15 11A5 5 0 1 0 15 21A5 5 0 1 0 15 11Z"/><path d="M27,8h-5c-0.552,0-1-0.448-1-1V6c0-0.552-0.448-1-1-1H10C9.448,5,9,5.448,9,6v1c0,0.552-0.448,1-1,1H3C2.448,8,2,8.448,2,9v15c0,0.552,0.448,1,1,1h24c0.552,0,1-0.448,1-1V9C28,8.448,27.552,8,27,8z M15,23c-3.866,0-7-3.134-7-7c0-3.866,3.134-7,7-7s7,3.134,7,7C22,19.866,18.866,23,15,23z M25,12c-0.552,0-1-0.448-1-1c0-0.552,0.448-1,1-1s1,0.448,1,1C26,11.552,25.552,12,25,12z"/></svg>